<svg width="320" height="320" viewBox="0 0 320 320" fill="none" xmlns="http://www.w3.org/2000/svg">
<g clip-path="url(#clip0_222_89)">
<rect width="320" height="320" rx="160" fill="#6100FD"/>
<path d="M93.583 200.408C88.1217 200.408 83.6417 199.427 80.143 197.464C76.6443 195.416 73.999 192.387 72.207 188.376C70.5003 184.365 69.647 179.288 69.647 173.144V146.264C69.647 142.509 70.6283 139.693 72.591 137.816C74.5537 135.853 77.3697 134.872 81.039 134.872C84.7083 134.872 87.5243 135.853 89.487 137.816C91.4497 139.693 92.431 142.509 92.431 146.264V173.784C92.431 176.856 93.071 179.16 94.351 180.696C95.631 182.232 97.6363 183 100.367 183C103.439 183 105.956 181.891 107.919 179.672C109.882 177.453 110.863 174.509 110.863 170.84V146.264C110.863 142.509 111.844 139.693 113.807 137.816C115.77 135.853 118.586 134.872 122.255 134.872C125.924 134.872 128.74 135.853 130.703 137.816C132.666 139.693 133.647 142.509 133.647 146.264V188.632C133.647 196.312 129.978 200.152 122.639 200.152C119.055 200.152 116.282 199.171 114.319 197.208C112.356 195.245 111.375 192.387 111.375 188.632V181.208L113.423 187.48C111.546 191.661 108.9 194.861 105.487 197.08C102.159 199.299 98.191 200.408 93.583 200.408ZM158.17 223.192C154.586 223.192 151.813 222.211 149.85 220.248C147.887 218.285 146.906 215.427 146.906 211.672V146.264C146.906 142.595 147.845 139.779 149.722 137.816C151.685 135.853 154.458 134.872 158.042 134.872C161.711 134.872 164.485 135.853 166.362 137.816C168.325 139.779 169.306 142.595 169.306 146.264V153.688L167.898 147.416C169.093 143.576 171.567 140.504 175.322 138.2C179.162 135.811 183.514 134.616 188.378 134.616C193.839 134.616 198.618 135.939 202.714 138.584C206.895 141.229 210.138 144.984 212.442 149.848C214.746 154.712 215.898 160.6 215.898 167.512C215.898 174.253 214.746 180.099 212.442 185.048C210.138 189.997 206.895 193.795 202.714 196.44C198.618 199.085 193.839 200.408 188.378 200.408C183.685 200.408 179.461 199.299 175.706 197.08C171.951 194.861 169.434 191.96 168.154 188.376H169.69V211.672C169.69 215.427 168.666 218.285 166.618 220.248C164.655 222.211 161.839 223.192 158.17 223.192ZM181.21 183.64C183.514 183.64 185.519 183.085 187.226 181.976C189.018 180.781 190.426 179.032 191.45 176.728C192.474 174.339 192.986 171.267 192.986 167.512C192.986 161.795 191.877 157.699 189.658 155.224C187.439 152.664 184.623 151.384 181.21 151.384C178.906 151.384 176.858 151.939 175.066 153.048C173.274 154.157 171.866 155.907 170.842 158.296C169.818 160.6 169.306 163.672 169.306 167.512C169.306 173.144 170.415 177.24 172.634 179.8C174.853 182.36 177.711 183.64 181.21 183.64ZM237.545 200.152C233.961 200.152 231.188 199.085 229.225 196.952C227.262 194.819 226.281 191.747 226.281 187.736V147.288C226.281 143.277 227.262 140.205 229.225 138.072C231.188 135.939 233.961 134.872 237.545 134.872C241.214 134.872 244.03 135.939 245.993 138.072C248.041 140.205 249.065 143.277 249.065 147.288V187.736C249.065 191.747 248.084 194.819 246.121 196.952C244.158 199.085 241.3 200.152 237.545 200.152ZM237.545 125.784C233.534 125.784 230.42 124.845 228.201 122.968C226.068 121.091 225.001 118.36 225.001 114.776C225.001 111.277 226.068 108.589 228.201 106.712C230.42 104.835 233.534 103.896 237.545 103.896C241.726 103.896 244.884 104.835 247.017 106.712C249.15 108.589 250.217 111.277 250.217 114.776C250.217 118.36 249.15 121.091 247.017 122.968C244.884 124.845 241.726 125.784 237.545 125.784Z" fill="white"/>
</g>
<defs>
<clipPath id="clip0_222_89">
<rect width="320" height="320" fill="white"/>
</clipPath>
</defs>
</svg>
